<svg xmlns="http://www.w3.org/2000/svg" viewBox="0 0 96 96">
  <rect width="96" height="96" rx="22" fill="#F5F4F1"/>
  <g transform="translate(48 52) scale(0.82) translate(-311.9 40)">
    <path fill="#F37C20" d="M302.30 1.60Q294.30 1.60 288.65-1.70Q283-5 280-11.05Q277-17.10 277-25.20L277-57.10L297.40-57.10L297.40-28.10Q297.40-21.80 300.50-18.40Q303.60-15 309.40-15Q313.70-15 316.60-16.75Q319.50-18.50 321.10-21.80Q322.70-25.10 322.70-29.70L329-26.40Q327.90-17.30 324.05-11.05Q320.20-4.80 314.60-1.60Q309 1.60 302.30 1.60M346.80 0L326.40 0L322.70-22.90L322.70-57.10L343.10-57.10L343.10-19.70L346.80 0M286-62.70L300.30-81.60L321.20-81.60L335.50-62.70L319.40-62.70L306-76.60L315.50-76.60L302.20-62.70"/>
  </g>
</svg>
